PathFileType	4	(X/Y/Z)	/Users/visionmauri/1_9_1_f_Sports2D/1_9_1_f_Sports2D_px_person00.trc
DataRate	CameraRate	NumFrames	NumMarkers	Units	OrigDataRate	OrigDataStartFrame	OrigNumFrames
30.0	30.0	13	22	m	30.0	130	349
Frame#	Time	Hip			RHip			RKnee			RAnkle			RBigToe			RSmallToe			RHeel			LHip			LKnee			LAnkle			LBigToe			LSmallToe			LHeel			Neck			Head			Nose			RShoulder			RElbow			RWrist			LShoulder			LElbow			LWrist			
		X1	Y1	Z1	X2	Y2	Z2	X3	Y3	Z3	X4	Y4	Z4	X5	Y5	Z5	X6	Y6	Z6	X7	Y7	Z7	X8	Y8	Z8	X9	Y9	Z9	X10	Y10	Z10	X11	Y11	Z11	X12	Y12	Z12	X13	Y13	Z13	X14	Y14	Z14	X15	Y15	Z15	X16	Y16	Z16	X17	Y17	Z17	X18	Y18	Z18	X19	Y19	Z19	X20	Y20	Z20	X21	Y21	Z21	X22	Y22	Z22
130	4.345785440613026	592.4856967726116	782.5155647406827	0.0	644.803947069382	789.6173815363297	0.0	638.1571481288357	1005.7087082990881	0.0	636.912753394412	1195.6441287750222	0.0	611.4218062461714	1224.4944341797614	0.0	647.5613626787645	1230.1128128426399	0.0	631.3901197522849	1230.4519623946032	0.0	543.8263386981497	787.1643330042841	0.0	546.1388189637405	973.6732629857385	0.0	554.388153729113	1003.7597768991637	0.0	550.8201562075365	1235.2999090874855	0.0	524.2498985496327	1228.0835193506948	0.0	557.2686581521712	990.7952662307454	0.0	577.2144625421876	522.339672746742	0.0	552.4191389614228	423.6111362509671	0.0	549.6925028074369	478.8753861934523	0.0	671.5622795967781	540.5514063273157	0.0	738.7484231520367	664.2761422275911	0.0	750.4189194493665	786.7472312699234	0.0	488.4731638510616	550.5026371143668	0.0	449.49501816639	687.2451160898735	0.0	445.6250179703874	707.5632205319529	0.0
131	4.379214559386973	593.6114600265778	781.9835767736174	0.0	646.4695782379089	789.5016082671712	0.0	636.2377112895081	1007.0144087692432	0.0	634.6902259373679	1196.585175112842	0.0	607.2239859654386	1224.7506663115591	0.0	646.0412208242412	1229.867282153589	0.0	629.7072947501179	1229.1922038297275	0.0	545.3282195346839	786.9474738603365	0.0	546.092245504684	970.941818500701	0.0	554.096349987651	987.1562916827496	0.0	547.6762650824139	1225.5728701594094	0.0	524.3139065520359	1167.1559404855946	0.0	558.6126792297079	968.4766651642917	0.0	579.4068272470541	522.8860650252309	0.0	551.7025341073797	423.808149433925	0.0	548.5100889145165	479.9671408345942	0.0	673.0792339077564	541.027050527259	0.0	741.2113497663586	660.7056530383568	0.0	751.4679377828536	785.0929090074704	0.0	491.6539649461056	551.2390463022541	0.0	452.03067281201317	689.3302891139298	0.0	449.6504811667033	711.8106613401648	0.0
132	4.4126436781609195	594.7383898399617	782.5710624461008	0.0	648.218432571457	789.0637556388491	0.0	634.9704701561343	1008.057803211806	0.0	633.2658680142961	1197.7142984536517	0.0	607.699539261063	1226.3937359408217	0.0	645.320967873668	1230.7540712730251	0.0	628.4426137774245	1227.9245292911564	0.0	547.2248960283152	787.8269398020778	0.0	546.9086725532889	970.6895210186818	0.0	553.4926046418954	983.171796145447	0.0	543.9084475494932	1214.0402333200718	0.0	524.5277196958765	1088.3079014766465	0.0	559.3088346316958	960.6673487519049	0.0	582.1414528432464	523.276578994572	0.0	551.9982475772393	424.30681345516916	0.0	548.3187169258791	481.08045768419424	0.0	675.1416250165116	541.934154966197	0.0	745.1865721635365	657.4010302260338	0.0	752.7396810559169	784.1632497506974	0.0	495.82665836991066	551.366814843287	0.0	455.3488733669857	689.7249196044397	0.0	453.57531513618966	716.2218116909306	0.0
133	4.446072796934866	596.5896335970187	782.3435578193502	0.0	650.6928087455766	787.9554055372347	0.0	635.3729539952024	1008.9248755372403	0.0	632.7777280697499	1198.4552691675235	0.0	610.4425818335167	1226.9297659915915	0.0	644.5141704659155	1231.259867874703	0.0	628.3618784792909	1226.5796977197415	0.0	549.3874375123869	787.2517216063308	0.0	548.1644819774913	968.862559870344	0.0	553.5695068212406	969.2887662475193	0.0	543.808206134089	1203.0989406813771	0.0	524.9782595824175	1033.7652956189272	0.0	559.9217092279329	941.0545364994911	0.0	585.0776577996036	523.338809372416	0.0	553.6383525908361	424.8647940988349	0.0	548.579239708275	481.84810787270493	0.0	677.3333207759896	543.4251661338149	0.0	750.245957668362	654.8867474133988	0.0	753.799810755119	784.820059319983	0.0	500.8199163337049	550.3534066112561	0.0	460.0117189483384	688.6689837927203	0.0	457.8204075667915	714.3254414459318	0.0
134	4.479501915708812	598.8160004337007	781.6107802645187	0.0	653.1962550041806	787.0556246960346	0.0	636.7622458848575	1009.2652381119781	0.0	632.9514023260705	1198.4962024019535	0.0	612.1291638199988	1227.153951789177	0.0	644.024704829973	1231.7925005869204	0.0	628.7857011730858	1225.5918225338041	0.0	551.2080037961327	785.6572889920452	0.0	549.1742398488827	966.9745761048293	0.0	554.4985926428569	954.7891133359107	0.0	546.0060076777519	1198.4425655711636	0.0	525.7981973066262	1035.9523209165106	0.0	561.0925156726539	922.1689078040592	0.0	587.8462183690672	523.3448606961424	0.0	554.8126411059388	424.9257572123049	0.0	548.2215335811289	482.61814504006924	0.0	679.1491765985197	544.5991196222947	0.0	755.2721889860942	652.5398888548203	0.0	755.2256047347624	784.9590238354298	0.0	505.63021938605107	548.849872090909	0.0	465.7265790036558	686.3365030754896	0.0	462.53655227598927	707.8107929671628	0.0
135	4.512931034482759	600.8021339053372	782.0110026956786	0.0	654.6876008590817	787.8431338870016	0.0	637.9582417433712	1009.0248130145073	0.0	633.4709907210244	1198.4389439261495	0.0	612.6833923790159	1227.619664070099	0.0	644.3761859333008	1232.5210028873862	0.0	629.0651329467671	1225.4369964512682	0.0	552.6562751972781	785.4102549962511	0.0	549.8271955588298	967.8696475553902	0.0	555.3754274744994	954.1771334131846	0.0	545.9756039925692	1199.1609223487724	0.0	526.8024982900702	1096.203600124424	0.0	562.5333130071111	921.2900626378072	0.0	590.3643332265888	523.4459677915514	0.0	553.6087444867305	424.7877643043309	0.0	546.4843134000002	484.46727508076197	0.0	680.5912647923636	544.5698730747821	0.0	759.6938621447501	649.0021537779911	0.0	757.6159384168761	782.6507265799979	0.0	509.858954301714	547.8413069197273	0.0	471.9983557519264	682.4827353375266	0.0	467.4538768008181	703.0909935536697	0.0
136	4.546360153256705	602.5767273802676	783.505434707115	0.0	655.1319437968924	789.9307745684885	0.0	639.0213788760625	1008.3657422100688	0.0	634.1120130105955	1198.7782630830454	0.0	613.090724400406	1227.8866662844837	0.0	645.1209708863285	1233.018019527693	0.0	629.7552239175109	1225.7382428405456	0.0	554.7358849298286	786.521401540847	0.0	550.1067969730607	969.0667877617038	0.0	555.7139575270947	964.0240284011734	0.0	544.2875533405751	1199.5851040903467	0.0	527.5271250326119	1171.8377226358912	0.0	563.2879197214752	933.0699728232488	0.0	592.7059860019234	523.3206004818554	0.0	550.80956669459	425.0584382254846	0.0	544.308054639611	487.2310031927961	0.0	682.1658269068786	543.7350475013612	0.0	763.4827804914901	643.678466143894	0.0	760.7612109389141	777.940389745766	0.0	514.1191210073863	547.3098738588404	0.0	478.1142686458402	679.0463887506434	0.0	472.3401781213978	701.7654937336418	0.0
137	4.579789272030651	604.6312423127378	784.716302597145	0.0	655.3451729673816	791.4589578993517	0.0	640.3784469541442	1007.8251151944194	0.0	634.8808344260451	1199.0127531570545	0.0	612.4817726430292	1227.8560518355787	0.0	644.3455009973326	1232.9639385296123	0.0	631.4504825362674	1225.5539495492083	0.0	558.1422312158118	787.0317890869459	0.0	549.4902927831477	965.5855858663879	0.0	555.8503869399972	972.6234778333263	0.0	544.2521251093482	1198.73347503234	0.0	528.0183245770555	1209.2040560087346	0.0	562.9964881212003	941.6132182344197	0.0	594.6724328198038	522.5814367450404	0.0	548.4557538853462	425.3612112883393	0.0	543.6150115678763	489.1500326687755	0.0	684.0255377461425	542.8708379158752	0.0	767.0491672870452	638.1246916094912	0.0	764.0755186812333	772.3406737542493	0.0	518.7420898453787	546.3475864753367	0.0	483.69145902394047	678.4195570671349	0.0	477.30981803216855	700.4246985666246	0.0
138	4.613218390804597	607.3053511543924	784.6150946153074	0.0	656.3607423952274	791.9367818884949	0.0	641.7013703854109	1007.7121159544484	0.0	635.7406253163389	1198.5959392974175	0.0	609.1760678929659	1227.8713105801164	0.0	640.9297121745772	1232.3030313243928	0.0	633.5498948499466	1225.1992951984355	0.0	562.3052604655957	786.5123942558749	0.0	547.3021595638313	957.7535304071216	0.0	555.6561385057187	975.2502458734069	0.0	545.108004985322	1202.6942747196663	0.0	528.6154048789526	1209.7432144845236	0.0	561.9752632498329	940.577410862147	0.0	596.4228577177906	521.6979964372949	0.0	546.464592684722	425.5846329826602	0.0	544.8181227150551	489.7847519350992	0.0	685.8983320749672	542.1619078685138	0.0	771.1306604310153	634.3988902940994	0.0	767.058771887943	767.6056935752529	0.0	523.3932072056625	544.3568345005763	0.0	489.4445041179673	678.557160604832	0.0	482.8443286003362	696.703347537545	0.0
139	4.6466475095785436	610.2886980329847	783.4208874241746	0.0	658.4883428484446	792.4825237736725	0.0	642.8083757311207	1007.3934575328559	0.0	636.4057957748579	1198.147272236371	0.0	604.2770678435197	1228.6136159877697	0.0	637.0902550557153	1231.9277218986326	0.0	635.2619798247346	1226.1510875958306	0.0	566.270306029285	786.0580314707121	0.0	543.7422133723346	950.5143703394851	0.0	554.7455567800812	971.8667329338168	0.0	544.6097112607415	1217.7163133183624	0.0	529.6577192866678	1211.665044777031	0.0	560.7685448773804	933.7625187306412	0.0	598.5043580479877	521.5384234506138	0.0	543.5773785890493	426.8554199233009	0.0	546.6825029580334	490.6209421488513	0.0	687.7606596840241	541.9400697727077	0.0	775.8786288993372	632.7541569606192	0.0	768.8447941717596	764.091338413295	0.0	528.0402814833114	541.6479769326681	0.0	495.77368690554954	675.9286654854197	0.0	488.9264707592713	692.1282157747502	0.0
140	4.680076628352491	613.0235816942273	782.2053264280381	0.0	660.9561177267412	793.6438843835366	0.0	644.210413278846	1006.5276288502389	0.0	636.7030362488388	1198.653451748065	0.0	600.8202584839142	1230.5564611810562	0.0	634.3440294920715	1233.247627513294	0.0	636.65887795177	1228.0589932785983	0.0	569.8099707764023	785.7557476866681	0.0	539.6069466033255	946.3164724702619	0.0	552.9883218067607	961.232016124044	0.0	544.4969498317475	1232.6038887474465	0.0	532.7655741666955	1219.846583693412	0.0	559.7501197139804	925.5938469544226	0.0	600.8629109133318	521.7349918348732	0.0	540.4242470698969	429.18644305407986	0.0	548.2317897433908	492.13247175553437	0.0	689.8096121131346	542.5447923693763	0.0	780.2816246162802	632.3003514552594	0.0	768.321142301319	760.5072946886481	0.0	532.8752857681528	538.8558123900026	0.0	501.87658873754316	671.5292966418097	0.0	494.87193524156265	689.1260302271068	0.0
141	4.713505747126437	615.2700406133303	781.2807753803744	0.0	662.8277581110849	794.6266817099546	0.0	646.0208717472084	1005.8171359269315	0.0	636.5978306373347	1199.9610645122739	0.0	599.0584945906227	1232.778694959872	0.0	630.5404007090091	1235.907909464141	0.0	637.6633618729652	1228.7083869287867	0.0	572.6791159399472	784.546943491262	0.0	535.6210167522858	944.2033200819334	0.0	550.0862016222735	946.62790777533	0.0	547.8806926975058	1213.7922407137107	0.0	539.4111847105884	1203.5880834820439	0.0	558.3693574497457	920.7733266599896	0.0	603.1418311624626	521.2687702892133	0.0	538.4340758226467	430.9274759443117	0.0	548.8137421233815	493.7482593587369	0.0	691.7983354577583	543.5002205191945	0.0	783.0885727355802	632.6444057347662	0.0	765.0486795747322	755.9715954214286	0.0	537.3774805743265	536.4426432544852	0.0	507.5000456821879	668.3913795320335	0.0	500.3675910607251	687.8356366713458	0.0
142	4.746934865900383	616.7711978288924	779.8979903566543	0.0	663.7570194824301	794.0618677838929	0.0	647.5859080194259	1005.758749766963	0.0	635.9423222722338	1200.9709713767504	0.0	597.3626258627642	1233.808604247202	0.0	625.3565612814444	1237.9449173960272	0.0	637.6839370838657	1227.477017287174	0.0	573.8598787192303	782.04850566526	0.0	532.8412191498455	943.4242713118448	0.0	546.5766119724303	937.4920056890253	0.0	553.4644535705991	1142.0036397807676	0.0	546.937558635091	1154.3156758279135	0.0	555.8626487879372	924.5469416573952	0.0	605.3459190843408	520.2662106461247	0.0	537.1016563243584	431.26507645352945	0.0	547.4661643225918	495.9313750029988	0.0	693.1087949232527	544.1285115536174	0.0	783.8163622402557	634.2110498115958	0.0	759.2350874623785	751.6338610349756	0.0	540.9427022551497	534.8294169731125	0.0	513.2548321020562	666.1976574926139	0.0	505.56231277457783	687.1991877646866	0.0
